<?xml version="1.0" encoding="UTF-8" standalone="no"?>
<svg
   xmlns="http://www.w3.org/2000/svg"
   width="16"
   height="16"
   viewBox="-1.41176 -1.41176 18.8235 18.8235"
   color="#ffffff"
   version="1.1">
  <!-- Generated by scripts/export-app-icons.sh from symbolic-icon.svg. Do not edit.

       Every shape paints with `currentColor` so the icon follows the surrounding
       foreground colour instead of carrying a baked-in fill:
         * GTK recolours symbolic icons by injecting a stylesheet that overrides
           `fill` on rect/circle/path with the widget's foreground colour.
         * KDE/Plasma StatusNotifier hosts swap the body of the
           `current-color-scheme` stylesheet below for the panel's text colour,
           which `.ColorScheme-Text` then feeds into `currentColor`.
         * Hosts that do neither still get a sensible result from the `color`
           attribute on the root element.
       The `color` default is only that last-resort fallback; src/tray.rs
       substitutes it per theme before rasterising the tray pixmap. -->
  <title>Data Cleaner</title>
  <style type="text/css" id="current-color-scheme">.ColorScheme-Text { color:#ffffff; }</style>
  <g class="ColorScheme-Text" style="fill:currentColor;stroke:none">
    <path class="ColorScheme-Text" style="fill:currentColor" d="M8.086 2.207a2 2 0 0 1 2.828 0l3.879 3.879a2 2 0 0 1 0 2.828l-5.5 5.5A2 2 0 0 1 7.879 15H5.12a2 2 0 0 1-1.414-.586l-2.5-2.5a2 2 0 0 1 0-2.828l6.879-6.879zm.66 11.34L3.453 8.254 1.914 9.793a1 1 0 0 0 0 1.414l2.5 2.5a1 1 0 0 0 .707.293H7.88a1 1 0 0 0 .707-.293l.16-.16z"/>
  </g>
</svg>
